<svg width="322" height="250" viewBox="0 0 322 250" xmlns="http://www.w3.org/2000/svg">
  <path d="M142.66665649414062,187.00000190734863Q142.66665649414062,187.00000190734863 142.66665649414062,187.00000190734863Q142.66665649414062,187.00000190734863 144.66665649414062,184.16667366027832Q146.66665649414062,181.333345413208 148.3333282470703,179.00000953674316Q150,176.66667366027832 151,175.00000953674316Q152,173.333345413208 152.5,171.16667366027832Q153,169.00000190734863 152.5,162.16667366027832Q152,155.333345413208 149,147.50000953674316Q146,139.66667366027832 139.8333282470703,129.66667366027832Q133.66665649414062,119.66667366027832 125.33332824707031,110.66667366027832Q117,101.66667366027832 111,97.83333778381348Q105,94.00000190734863 101.16666412353516,93.16667366027832Q97.33332824707031,92.33334541320801 94.83332824707031,92.16667366027832Q92.33332824707031,92.00000190734863 90.99999237060547,93.33333778381348Q89.66665649414062,94.66667366027832 88.99999237060547,96.50000953674316Q88.33332824707031,98.33334541320801 87.99999237060547,99.66667366027832Q87.66665649414062,101.00000190734863 87.49999237060547,101.83333778381348Q87.33332824707031,102.66667366027832 87.66666412353516,103.33333778381348Q88,104.00000190734863 92.83332824707031,105.00000190734863Q97.66665649414062,106.00000190734863 107.66665649414062,106.16667366027832Q117.66665649414062,106.33334541320801 126.16665649414062,105.33334541320801Q134.66665649414062,104.33334541320801 140.16665649414062,102.16667366027832Q145.66665649414062,100.00000190734863 150.8333282470703,97.00000190734863Q156,94.00000190734863 157.3333282470703,91.83333778381348Q158.66665649414062,89.66667366027832 158.99999237060547,86.50000953674316Q159.3333282470703,83.33334541320801 157.99999237060547,77.50000953674316Q156.66665649414062,71.66667366027832 153.99999237060547,65.33333778381348Q151.3333282470703,59.00000190734863 147.66666412353516,52.83333778381348Q144,46.66667366027832 140.3333282470703,42.500009536743164Q136.66665649414062,38.33334541320801 135.16665649414062,37.000009536743164Q133.66665649414062,35.66667366027832 132.99999237060547,35.83333778381348Q132.3333282470703,36.00000190734863 132.3333282470703,36.66667366027832 M189.3333282470703,86.66667366027832Q189.3333282470703,86.66667366027832 189.3333282470703,86.66667366027832Q189.3333282470703,86.66667366027832 194.16666412353516,85.33333778381348Q199,84.00000190734863 201.5,83.33333778381348Q204,82.66667366027832 204.66666412353516,82.50000953674316Q205.3333282470703,82.33334541320801 192.66666412353516,82.33334541320801Q180,82.33334541320801 160.8333282470703,82.33334541320801Q141.66665649414062,82.33334541320801 126.33332824707031,85.00000953674316Q111,87.66667366027832 94.83332824707031,95.50000953674316Q78.66665649414062,103.33334541320801 66.33332824707031,113.16667366027832Q54,123.00000190734863 47.5,130.83333778381348Q41,138.66667366027832 37.666664123535156,144.00000953674316Q34.33332824707031,149.333345413208 32.49999237060547,154.00000953674316Q30.666656494140625,158.66667366027832 30.49999237060547,161.50000953674316Q30.333328247070312,164.333345413208 31.333328247070312,165.50000953674316Q32.33332824707031,166.66667366027832 43.33332824707031,165.33333778381348Q54.33332824707031,164.00000190734863 70.16666412353516,157.16667366027832Q86,150.333345413208 99.83332824707031,143.00000953674316Q113.66665649414062,135.66667366027832 124.49999237060547,128.16667366027832Q135.3333282470703,120.66667366027832 141.99999237060547,114.83333778381348Q148.66665649414062,109.00000190734863 153.8333282470703,102.83333778381348Q159,96.66667366027832 161.3333282470703,92.50000953674316Q163.66665649414062,88.33334541320801 164.49999237060547,86.50000953674316Q165.3333282470703,84.66667366027832 165.49999237060547,83.16667366027832Q165.66665649414062,81.66667366027832 164.99999237060547,80.50000953674316Q164.3333282470703,79.33334541320801 158.8333282470703,78.50000953674316Q153.3333282470703,77.66667366027832 146.99999237060547,77.16667366027832Q140.66665649414062,76.66667366027832 135.16665649414062,76.66667366027832Q129.66665649414062,76.66667366027832 125.16665649414062,77.50000953674316Q120.66665649414062,78.33334541320801 119.16665649414062,81.66667366027832Q117.66665649414062,85.00000190734863 117.33332824707031,89.16667366027832Q117,93.33334541320801 117.16666412353516,98.00000953674316Q117.33332824707031,102.66667366027832 121.16666412353516,109.00000953674316Q125,115.33334541320801 132.16666412353516,119.50000953674316Q139.3333282470703,123.66667366027832 148.99999237060547,126.00000953674316Q158.66665649414062,128.333345413208 169.8333282470703,128.50000953674316Q181,128.66667366027832 187,126.83333778381348Q193,125.00000190734863 197.8333282470703,117.33333778381348Q202.66665649414062,109.66667366027832 204.3333282470703,98.66667366027832Q206,87.66667366027832 206.16666412353516,77.33333778381348Q206.3333282470703,67.00000190734863 205.66666412353516,60.16667366027832Q205,53.33334541320801 202,47.16667366027832Q199,41.00000190734863 195.16666412353516,40.33333778381348Q191.3333282470703,39.66667366027832 187.16666412353516,42.000009536743164Q183,44.33334541320801 178.3333282470703,50.000009536743164Q173.66665649414062,55.66667366027832 171.8333282470703,60.16667366027832Q170,64.66667366027832 169.16666412353516,69.16667366027832Q168.3333282470703,73.66667366027832 168.3333282470703,77.16667366027832Q168.3333282470703,80.66667366027832 170.3333282470703,84.16667366027832Q172.3333282470703,87.66667366027832 178.16666412353516,90.50000953674316Q184,93.33334541320801 192.66666412353516,94.33334541320801Q201.3333282470703,95.33334541320801 213.49999237060547,95.50000953674316Q225.66665649414062,95.66667366027832 233.49999237060547,94.00000953674316Q241.3333282470703,92.33334541320801 247.66666412353516,90.33334541320801Q254,88.33334541320801 258.8333282470703,86.33334541320801Q263.6666564941406,84.33334541320801 265.1666564941406,83.33334541320801Q266.6666564941406,82.33334541320801 267.3333282470703,81.50000953674316Q268,80.66667366027832 268.16666412353516,80.16667366027832Q268.3333282470703,79.66667366027832 267.8333282470703,79.33333778381348Q267.3333282470703,79.00000190734863 265.8333282470703,79.00000190734863Q264.3333282470703,79.00000190734863 262.49999237060547,79.16667366027832Q260.6666564941406,79.33334541320801 258.99999237060547,80.33334541320801Q257.3333282470703,81.33334541320801 256.16666412353516,83.33334541320801Q255,85.33334541320801 254.16666412353516,87.83334541320801Q253.3333282470703,90.33334541320801 252.99999237060547,93.33334541320801Q252.66665649414062,96.33334541320801 252.49999237060547,99.00000953674316Q252.3333282470703,101.66667366027832 252.3333282470703,103.83333778381348Q252.3333282470703,106.00000190734863 252.49999237060547,107.33333778381348Q252.66665649414062,108.66667366027832 253.3333282470703,108.83333778381348Q254,109.00000190734863 255.16666412353516,108.16667366027832Q256.3333282470703,107.33334541320801 256.66666412353516,105.66667366027832Q257,104.00000190734863 257.16666412353516,102.00000190734863Q257.3333282470703,100.00000190734863 256.99999237060547,96.33333778381348Q256.6666564941406,92.66667366027832 255.16665649414062,89.66667366027832Q253.66665649414062,86.66667366027832 250.49999237060547,83.83333778381348Q247.3333282470703,81.00000190734863 241.16666412353516,78.16667366027832Q235,75.33334541320801 225.3333282470703,73.50000953674316Q215.66665649414062,71.66667366027832 208.16665649414062,71.33333778381348Q200.66665649414062,71.00000190734863 193.49999237060547,71.00000190734863Q186.3333282470703,71.00000190734863 180.66666412353516,71.50000190734863Q175,72.00000190734863 172.3333282470703,72.50000190734863Q169.66665649414062,73.00000190734863 167.49999237060547,73.16667366027832" stroke="#F44336" stroke-width="3" fill="none" stroke-linecap="round" stroke-linejoin="round"/>
</svg>