<svg xmlns="http://www.w3.org/2000/svg" width="362" height="524.4" viewBox="0 0 362 524.4">
  <path d="M98,151.33333587646484Q98,151.33333587646484 98,151.6666717529297Q98,152.00000762939453 98,155.6666717529297Q98,159.33333587646484 98,168.5Q98,177.66666412353516 98,195.5Q98,213.33333587646484 98.16666412353516,228Q98.33332824707031,242.66666412353516 98.83332824707031,260.33333587646484Q99.33332824707031,278.00000762939453 99.49999237060547,288.33333587646484Q99.66665649414062,298.66666412353516 99.66665649414062,307.83333587646484Q99.66665649414062,317.00000762939453 99.66665649414062,322.83333587646484Q99.66665649414062,328.66666412353516 99.66665649414062,332.16666412353516Q99.66665649414062,335.66666412353516 99.66665649414062,338.16666412353516Q99.66665649414062,340.66666412353516 99.66665649414062,341.5Q99.66665649414062,342.33333587646484 99.49999237060547,342.6666717529297Q99.33332824707031,343.00000762939453 99.33332824707031,342.83333587646484Q99.33332824707031,342.66666412353516 99.33332824707031,342.5Q99.33332824707031,342.33333587646484 99.83332824707031,342Q100.33332824707031,341.66666412353516 104.99999237060547,340.16666412353516Q109.66665649414062,338.66666412353516 117.83332824707031,336.83333587646484Q126,335.00000762939453 138.66666412353516,332.83333587646484Q151.3333282470703,330.66666412353516 163.3333282470703,329.16666412353516Q175.3333282470703,327.66666412353516 188.3333282470703,326.83333587646484Q201.3333282470703,326.00000762939453 209.99999237060547,325.83333587646484Q218.66665649414062,325.66666412353516 223.66665649414062,325.66666412353516Q228.66665649414062,325.66666412353516 232.49999237060547,325.66666412353516Q236.3333282470703,325.66666412353516 237.99999237060547,325.66666412353516Q239.66665649414062,325.66666412353516 240.3333282470703,325.66666412353516Q241,325.66666412353516 241.3333282470703,325.66666412353516Q241.66665649414062,325.66666412353516 241.8333282470703,325.66666412353516Q242,325.66666412353516 241.3333282470703,325.66666412353516" stroke="#FF9800" stroke-width="4" fill="none" stroke-linecap="round" stroke-linejoin="round"/>
</svg>